<svg width="134" height="42" viewBox="53 39 134 42" fill="none" xmlns="http://www.w3.org/2000/svg">
<path fill-rule="evenodd" clip-rule="evenodd" d="M130.688 70.1337C129.511 72.7336 127.572 73.0729 126.707 73.1724C125.797 73.2776 124.822 73.2351 124.822 73.2351V71.1095C126.548 71.1095 127.489 71.2445 128.507 69.2263L129.198 67.4751L122.834 54.8206H126.899L131.072 63.2327L134.762 54.8224H137.404C137.404 54.8224 131.866 67.5338 130.688 70.1337ZM115.84 67.0039C114.157 67.0039 112.948 65.7633 112.948 63.931C112.948 62.0982 114.564 61.019 116.037 61.019C116.779 61.019 117.486 61.2232 117.76 61.4578V66.1556C117.285 66.5677 116.732 67.0039 115.84 67.0039ZM115.676 54.8224C112.742 54.8224 111.236 55.5422 111.236 55.5422L111.595 56.6302C111.595 56.6302 112.699 56.1182 114.865 56.1182C117.27 56.1182 117.76 57.2859 117.76 58.878L117.728 59.5899C117.214 59.4383 116.009 59.2388 114.774 59.2388C112.941 59.2388 109.911 60.3698 109.911 64.0577C109.911 67.5715 112.579 68.7169 114.474 68.7169C116.037 68.7169 116.988 68.2343 117.76 67.7565V68.4772H121.633V58.878C121.633 55.8424 118.611 54.8224 115.676 54.8224ZM99.3835 60.4136V52.1028C99.3835 52.1028 100.579 52.1076 101.92 52.1076C103.822 52.1076 105.921 53.5503 105.921 56.0222C105.921 58.494 103.822 60.4162 101.921 60.4162C100.076 60.4162 99.3835 60.4136 99.3835 60.4136ZM101.92 50.2402H99.3835H96.4153C95.913 50.2402 95.5059 50.6466 95.5059 51.1485V68.4772H99.3835V62.2766C99.3835 62.2766 100.514 62.2788 101.921 62.2788C105.673 62.2788 109.074 59.9402 109.074 55.9766C109.074 52.0143 105.673 50.2402 101.92 50.2402ZM175.023 70.1337C173.845 72.7336 171.906 73.0729 171.04 73.1724C170.13 73.2776 169.156 73.2351 169.156 73.2351V71.1095C170.883 71.1095 171.823 71.2445 172.842 69.2263L173.532 67.4751L167.168 54.8206H171.234L175.407 63.2327L179.096 54.8224H181.737C181.737 54.8224 176.2 67.5338 175.023 70.1337ZM160.175 67.0039C158.491 67.0039 157.283 65.7633 157.283 63.931C157.283 62.0982 158.898 61.019 160.371 61.019C161.114 61.019 161.821 61.2232 162.094 61.4578V66.1556C161.62 66.5677 161.066 67.0039 160.175 67.0039ZM160.01 54.8224C157.076 54.8224 155.57 55.5422 155.57 55.5422L155.929 56.6302C155.929 56.6302 157.034 56.1182 159.198 56.1182C161.604 56.1182 162.094 57.2859 162.094 58.878L162.063 59.5899C161.548 59.4383 160.343 59.2388 159.108 59.2388C157.274 59.2388 154.245 60.3698 154.245 64.0577C154.245 67.5715 156.913 68.7169 158.808 68.7169C160.371 68.7169 161.323 68.2343 162.094 67.7565V68.4772H165.968V58.878C165.968 55.8424 162.945 54.8224 160.01 54.8224ZM143.717 60.4136V52.1028C143.717 52.1028 144.913 52.1076 146.254 52.1076C148.156 52.1076 150.255 53.5503 150.255 56.0222C150.255 58.494 148.156 60.4162 146.254 60.4162C144.41 60.4162 143.717 60.4136 143.717 60.4136ZM146.254 50.2402H143.717H140.749C140.247 50.2402 139.84 50.6466 139.84 51.1485V68.4772H143.717V62.2766C143.717 62.2766 144.847 62.2788 146.254 62.2788C150.007 62.2788 153.408 59.9402 153.408 55.9766C153.408 52.0143 150.007 50.2402 146.254 50.2402Z" fill="#3F3A39"/>
<path fill-rule="evenodd" clip-rule="evenodd" d="M84.4764 44.4385C87.0028 44.4385 89.07 46.5044 89.07 49.0289V70.8941C89.07 73.4186 87.0028 75.4842 84.4764 75.4842L62.5941 75.4846C60.0676 75.4846 58 73.4186 58 70.8941V54.1542L58.0123 48.783C58.1426 46.3721 60.1505 44.4385 62.5945 44.4385H84.4764Z" fill="white"/>
<path fill-rule="evenodd" clip-rule="evenodd" d="M84.4764 44.4385H62.5945C60.1505 44.4385 58.1426 46.3721 58.0123 48.783C76.3324 48.2658 85.2437 54.6351 83.8447 60.9842C82.5847 66.7013 76.7724 68.8931 67.3272 69.6128L65.9146 75.4842H84.4764C87.0028 75.4842 89.07 73.4186 89.07 70.8941V49.0289C89.07 46.5044 87.0028 44.4385 84.4764 44.4385ZM82.7378 61.0123C83.4661 58.0468 78.6816 55.3036 71.0188 54.2677L68.237 65.8311C74.6592 66.1349 81.9543 64.2031 82.7378 61.0123ZM64.051 75.4846H62.5941C60.0676 75.4846 58 73.4186 58 70.8941V54.1542C62.1229 53.7378 65.9681 53.7461 69.3404 54.074L64.051 75.4846Z" fill="#FF0033"/>
</svg>
