<svg width="64" height="64" viewBox="88 28 64 64" fill="none" xmlns="http://www.w3.org/2000/svg">
<path d="M92 40.3723C92 35.7484 95.7484 32 100.372 32H139.443C144.067 32 147.815 35.7484 147.815 40.3723V79.443C147.815 84.0669 144.067 87.8153 139.443 87.8153H100.372C95.7484 87.8153 92 84.0669 92 79.443V40.3723Z" fill="white"/>
<path fill-rule="evenodd" clip-rule="evenodd" d="M139.563 32H100.252C95.8624 32 92.2551 35.476 92.0221 39.8105C124.932 38.8798 140.941 50.331 138.428 61.7467C136.166 72.0244 125.723 75.9651 108.755 77.2587L106.218 87.8147H139.563C144.102 87.8147 147.815 84.1017 147.815 79.5618V40.2528C147.815 35.7136 144.102 32 139.563 32ZM136.44 61.7973C137.748 56.4651 129.153 51.5334 115.388 49.6714L110.39 70.4603C121.926 71.0064 135.033 67.5324 136.44 61.7973ZM102.87 87.8153H100.252C95.713 87.8153 92 84.1011 92 79.5625V49.4659C99.4049 48.7183 106.314 48.7321 112.372 49.3235L102.87 87.8153Z" fill="#FF0033"/>
</svg>
